solid Onshape
  facet normal 0 0 1
    outer loop
      vertex 1.38778e-15 3.8 0.1
      vertex 1.38778e-15 6.93889e-16 0.1
      vertex 9.1 3.8 0.1
    endloop
  endfacet
  facet normal 0 0 1
    outer loop
      vertex 1.38778e-15 6.93889e-16 0.1
      vertex 9.1 -6.93889e-16 0.1
      vertex 9.1 3.8 0.1
    endloop
  endfacet
  facet normal 0 -1 0
    outer loop
      vertex 1.38778e-15 3.8 0.1
      vertex 9.1 3.8 0.1
      vertex 1.38778e-15 3.8 2.7
    endloop
  endfacet
  facet normal 0 -1 0
    outer loop
      vertex 9.1 3.8 0.1
      vertex 9.1 3.8 2.7
      vertex 1.38778e-15 3.8 2.7
    endloop
  endfacet
  facet normal 0 0 -1
    outer loop
      vertex 1.38778e-15 3.8 2.7
      vertex 9.1 3.8 2.7
      vertex 1.38778e-15 6.93889e-16 2.7
    endloop
  endfacet
  facet normal 0 0 -1
    outer loop
      vertex 9.1 3.8 2.7
      vertex 9.1 -6.93889e-16 2.7
      vertex 1.38778e-15 6.93889e-16 2.7
    endloop
  endfacet
  facet normal 0 0 -1
    outer loop
      vertex 1.38778e-15 6.93889e-16 0
      vertex 0 4.1 0
      vertex 9.1 -6.93889e-16 0
    endloop
  endfacet
  facet normal 0 0 -1
    outer loop
      vertex 0 4.1 0
      vertex 9.1 4.1 0
      vertex 9.1 -6.93889e-16 0
    endloop
  endfacet
  facet normal 1 0 0
    outer loop
      vertex 9.1 -6.93889e-16 0.1
      vertex 9.1 -6.93889e-16 0
      vertex 9.1 3.8 0.1
    endloop
  endfacet
  facet normal 1 0 0
    outer loop
      vertex 9.1 -6.93889e-16 0
      vertex 9.1 4.1 0
      vertex 9.1 3.8 0.1
    endloop
  endfacet
  facet normal 1 0 0
    outer loop
      vertex 9.1 3.8 0.1
      vertex 9.1 4.1 0
      vertex 9.1 3.8 2.7
    endloop
  endfacet
  facet normal 1 0 0
    outer loop
      vertex 9.1 4.1 0
      vertex 9.1 4.1 2.8
      vertex 9.1 3.8 2.7
    endloop
  endfacet
  facet normal 1 0 0
    outer loop
      vertex 9.1 3.8 2.7
      vertex 9.1 4.1 2.8
      vertex 9.1 -6.93889e-16 2.7
    endloop
  endfacet
  facet normal 1 0 0
    outer loop
      vertex 9.1 4.1 2.8
      vertex 9.1 -6.93889e-16 2.8
      vertex 9.1 -6.93889e-16 2.7
    endloop
  endfacet
  facet normal -1.52503e-16 -1 0
    outer loop
      vertex 1.38778e-15 6.93889e-16 0.1
      vertex 1.38778e-15 6.93889e-16 0
      vertex 9.1 -6.93889e-16 0.1
    endloop
  endfacet
  facet normal -1.52503e-16 -1 0
    outer loop
      vertex 1.38778e-15 6.93889e-16 0
      vertex 9.1 -6.93889e-16 0
      vertex 9.1 -6.93889e-16 0.1
    endloop
  endfacet
  facet normal -1 0 0
    outer loop
      vertex 1.38778e-15 6.93889e-16 2.7
      vertex 1.38778e-15 6.93889e-16 2.8
      vertex 1.38778e-15 3.8 2.7
    endloop
  endfacet
  facet normal -1 -3.38483e-16 -1.28623e-14
    outer loop
      vertex 1.38778e-15 6.93889e-16 2.8
      vertex 0 4.1 2.8
      vertex 1.38778e-15 3.8 2.7
    endloop
  endfacet
  facet normal -1 -4.62593e-15 0
    outer loop
      vertex 1.38778e-15 3.8 2.7
      vertex 0 4.1 2.8
      vertex 1.38778e-15 3.8 0.1
    endloop
  endfacet
  facet normal -1 -4.62593e-15 0
    outer loop
      vertex 0 4.1 2.8
      vertex 0 4.1 0
      vertex 1.38778e-15 3.8 0.1
    endloop
  endfacet
  facet normal -1 0 1.38778e-14
    outer loop
      vertex 1.38778e-15 3.8 0.1
      vertex 0 4.1 0
      vertex 1.38778e-15 6.93889e-16 0.1
    endloop
  endfacet
  facet normal -1 -3.38483e-16 0
    outer loop
      vertex 0 4.1 0
      vertex 1.38778e-15 6.93889e-16 0
      vertex 1.38778e-15 6.93889e-16 0.1
    endloop
  endfacet
  facet normal 0 1 0
    outer loop
      vertex 0 4.1 2.8
      vertex 9.1 4.1 2.8
      vertex 0 4.1 0
    endloop
  endfacet
  facet normal 0 1 0
    outer loop
      vertex 9.1 4.1 2.8
      vertex 9.1 4.1 0
      vertex 0 4.1 0
    endloop
  endfacet
  facet normal -1.52503e-16 -1 0
    outer loop
      vertex 9.1 -6.93889e-16 2.8
      vertex 1.38778e-15 6.93889e-16 2.8
      vertex 9.1 -6.93889e-16 2.7
    endloop
  endfacet
  facet normal -1.52503e-16 -1 0
    outer loop
      vertex 1.38778e-15 6.93889e-16 2.8
      vertex 1.38778e-15 6.93889e-16 2.7
      vertex 9.1 -6.93889e-16 2.7
    endloop
  endfacet
  facet normal 0 0 1
    outer loop
      vertex 0 4.1 2.8
      vertex 1.38778e-15 6.93889e-16 2.8
      vertex 9.1 4.1 2.8
    endloop
  endfacet
  facet normal 0 0 1
    outer loop
      vertex 1.38778e-15 6.93889e-16 2.8
      vertex 9.1 -6.93889e-16 2.8
      vertex 9.1 4.1 2.8
    endloop
  endfacet
  facet normal 0 -1 0
    outer loop
      vertex 9.1 8.1 3.1
      vertex 9.1 8.1 6.9
      vertex 3.43005e-16 8.1 3.1
    endloop
  endfacet
  facet normal 0 -1 0
    outer loop
      vertex 9.1 8.1 6.9
      vertex 6.32761e-16 8.1 6.9
      vertex 3.43005e-16 8.1 3.1
    endloop
  endfacet
  facet normal 0 0 1
    outer loop
      vertex 9.1 8.1 3.1
      vertex 3.43005e-16 8.1 3.1
      vertex 9.1 5.5 3.1
    endloop
  endfacet
  facet normal 0 0 1
    outer loop
      vertex 3.43005e-16 8.1 3.1
      vertex 5.41259e-16 5.5 3.1
      vertex 9.1 5.5 3.1
    endloop
  endfacet
  facet normal 0 1 0
    outer loop
      vertex 9.1 5.5 3.1
      vertex 5.41259e-16 5.5 3.1
      vertex 9.1 5.5 6.9
    endloop
  endfacet
  facet normal 0 1 0
    outer loop
      vertex 5.41259e-16 5.5 3.1
      vertex 8.31015e-16 5.5 6.9
      vertex 9.1 5.5 6.9
    endloop
  endfacet
  facet normal 0 1 0
    outer loop
      vertex 9.1 8.2 6.9
      vertex 9.1 8.2 2.8
      vertex 6.25263e-16 8.2 6.9
    endloop
  endfacet
  facet normal 0 1 0
    outer loop
      vertex 9.1 8.2 2.8
      vertex -5.24977e-19 8.2 2.8
      vertex 6.25263e-16 8.2 6.9
    endloop
  endfacet
  facet normal -1 -7.49809e-17 7.62516e-17
    outer loop
      vertex 6.32761e-16 8.1 6.9
      vertex 6.25263e-16 8.2 6.9
      vertex 3.43005e-16 8.1 3.1
    endloop
  endfacet
  facet normal -1 -2.9774e-15 1.52631e-16
    outer loop
      vertex 6.25263e-16 8.2 6.9
      vertex -5.24977e-19 8.2 2.8
      vertex 3.43005e-16 8.1 3.1
    endloop
  endfacet
  facet normal -1 -7.62516e-17 1.11968e-15
    outer loop
      vertex 3.43005e-16 8.1 3.1
      vertex -5.24977e-19 8.2 2.8
      vertex 5.41259e-16 5.5 3.1
    endloop
  endfacet
  facet normal -1 -7.62516e-17 1.11968e-15
    outer loop
      vertex -5.24977e-19 8.2 2.8
      vertex 2.12979e-16 5.4 2.8
      vertex 5.41259e-16 5.5 3.1
    endloop
  endfacet
  facet normal -1 3.05405e-15 7.62516e-17
    outer loop
      vertex 5.41259e-16 5.5 3.1
      vertex 2.12979e-16 5.4 2.8
      vertex 8.31015e-16 5.5 6.9
    endloop
  endfacet
  facet normal -1 -7.75227e-17 1.52631e-16
    outer loop
      vertex 2.12979e-16 5.4 2.8
      vertex 8.38767e-16 5.4 6.9
      vertex 8.31015e-16 5.5 6.9
    endloop
  endfacet
  facet normal 0 0 1
    outer loop
      vertex 9.1 8.1 6.9
      vertex 9.1 8.2 6.9
      vertex 6.32761e-16 8.1 6.9
    endloop
  endfacet
  facet normal 0 0 1
    outer loop
      vertex 9.1 8.2 6.9
      vertex 6.25263e-16 8.2 6.9
      vertex 6.32761e-16 8.1 6.9
    endloop
  endfacet
  facet normal 1 0 0
    outer loop
      vertex 9.1 5.5 6.9
      vertex 9.1 5.4 6.9
      vertex 9.1 5.5 3.1
    endloop
  endfacet
  facet normal 1 0 0
    outer loop
      vertex 9.1 5.4 6.9
      vertex 9.1 5.4 2.8
      vertex 9.1 5.5 3.1
    endloop
  endfacet
  facet normal 1 0 0
    outer loop
      vertex 9.1 5.5 3.1
      vertex 9.1 5.4 2.8
      vertex 9.1 8.1 3.1
    endloop
  endfacet
  facet normal 1 0 0
    outer loop
      vertex 9.1 5.4 2.8
      vertex 9.1 8.2 2.8
      vertex 9.1 8.1 3.1
    endloop
  endfacet
  facet normal 1 0 0
    outer loop
      vertex 9.1 8.1 3.1
      vertex 9.1 8.2 2.8
      vertex 9.1 8.1 6.9
    endloop
  endfacet
  facet normal 1 0 0
    outer loop
      vertex 9.1 8.2 2.8
      vertex 9.1 8.2 6.9
      vertex 9.1 8.1 6.9
    endloop
  endfacet
  facet normal 0 0 -1
    outer loop
      vertex 9.1 5.4 2.8
      vertex 2.12979e-16 5.4 2.8
      vertex 9.1 8.2 2.8
    endloop
  endfacet
  facet normal 0 0 -1
    outer loop
      vertex 2.12979e-16 5.4 2.8
      vertex -5.24977e-19 8.2 2.8
      vertex 9.1 8.2 2.8
    endloop
  endfacet
  facet normal 0 0 1
    outer loop
      vertex 8.38767e-16 5.4 6.9
      vertex 9.1 5.4 6.9
      vertex 8.31015e-16 5.5 6.9
    endloop
  endfacet
  facet normal 0 0 1
    outer loop
      vertex 9.1 5.4 6.9
      vertex 9.1 5.5 6.9
      vertex 8.31015e-16 5.5 6.9
    endloop
  endfacet
  facet normal 0 -1 0
    outer loop
      vertex 9.1 5.4 2.8
      vertex 9.1 5.4 6.9
      vertex 2.12979e-16 5.4 2.8
    endloop
  endfacet
  facet normal 0 -1 0
    outer loop
      vertex 9.1 5.4 6.9
      vertex 8.38767e-16 5.4 6.9
      vertex 2.12979e-16 5.4 2.8
    endloop
  endfacet
  facet normal 0 0 1
    outer loop
      vertex 9.1 4.4 0.1
      vertex 9.1 8.2 0.1
      vertex -1.27055e-19 4.4 0.1
    endloop
  endfacet
  facet normal 0 0 1
    outer loop
      vertex 9.1 8.2 0.1
      vertex -1.27055e-19 8.2 0.1
      vertex -1.27055e-19 4.4 0.1
    endloop
  endfacet
  facet normal 0 1 0
    outer loop
      vertex 9.1 4.4 0.1
      vertex -1.27055e-19 4.4 0.1
      vertex 9.1 4.4 2.7
    endloop
  endfacet
  facet normal 0 1 0
    outer loop
      vertex -1.27055e-19 4.4 0.1
      vertex -1.27055e-19 4.4 2.7
      vertex 9.1 4.4 2.7
    endloop
  endfacet
  facet normal 0 0 -1
    outer loop
      vertex 9.1 4.4 2.7
      vertex -1.27055e-19 4.4 2.7
      vertex 9.1 8.2 2.7
    endloop
  endfacet
  facet normal 0 0 -1
    outer loop
      vertex -1.27055e-19 4.4 2.7
      vertex -1.27055e-19 8.2 2.7
      vertex 9.1 8.2 2.7
    endloop
  endfacet
  facet normal 0 0 -1
    outer loop
      vertex 9.1 8.2 0
      vertex 9.1 4.1 0
      vertex 0 8.2 0
    endloop
  endfacet
  facet normal 0 0 -1
    outer loop
      vertex 9.1 4.1 0
      vertex -3.13156e-16 4.1 0
      vertex 0 8.2 0
    endloop
  endfacet
  facet normal -1 0 -1.27055e-18
    outer loop
      vertex -1.27055e-19 8.2 0.1
      vertex 0 8.2 0
      vertex -1.27055e-19 4.4 0.1
    endloop
  endfacet
  facet normal -1 7.63796e-17 2.90116e-15
    outer loop
      vertex 0 8.2 0
      vertex -3.13156e-16 4.1 0
      vertex -1.27055e-19 4.4 0.1
    endloop
  endfacet
  facet normal -1 1.04343e-15 0
    outer loop
      vertex -1.27055e-19 4.4 0.1
      vertex -3.13156e-16 4.1 0
      vertex -1.27055e-19 4.4 2.7
    endloop
  endfacet
  facet normal -1 1.04343e-15 0
    outer loop
      vertex -3.13156e-16 4.1 0
      vertex -3.13156e-16 4.1 2.8
      vertex -1.27055e-19 4.4 2.7
    endloop
  endfacet
  facet normal -1 0 -3.13029e-15
    outer loop
      vertex -1.27055e-19 4.4 2.7
      vertex -3.13156e-16 4.1 2.8
      vertex -1.27055e-19 8.2 2.7
    endloop
  endfacet
  facet normal -1 7.63796e-17 1.27055e-18
    outer loop
      vertex -3.13156e-16 4.1 2.8
      vertex 0 8.2 2.8
      vertex -1.27055e-19 8.2 2.7
    endloop
  endfacet
  facet normal 0 1 0
    outer loop
      vertex 9.1 8.2 0.1
      vertex 9.1 8.2 0
      vertex -1.27055e-19 8.2 0.1
    endloop
  endfacet
  facet normal 0 1 0
    outer loop
      vertex 9.1 8.2 0
      vertex 0 8.2 0
      vertex -1.27055e-19 8.2 0.1
    endloop
  endfacet
  facet normal 1 0 0
    outer loop
      vertex 9.1 8.2 2.7
      vertex 9.1 8.2 2.8
      vertex 9.1 4.4 2.7
    endloop
  endfacet
  facet normal 1 0 0
    outer loop
      vertex 9.1 8.2 2.8
      vertex 9.1 4.1 2.8
      vertex 9.1 4.4 2.7
    endloop
  endfacet
  facet normal 1 0 0
    outer loop
      vertex 9.1 4.4 2.7
      vertex 9.1 4.1 2.8
      vertex 9.1 4.4 0.1
    endloop
  endfacet
  facet normal 1 0 0
    outer loop
      vertex 9.1 4.1 2.8
      vertex 9.1 4.1 0
      vertex 9.1 4.4 0.1
    endloop
  endfacet
  facet normal 1 0 0
    outer loop
      vertex 9.1 4.4 0.1
      vertex 9.1 4.1 0
      vertex 9.1 8.2 0.1
    endloop
  endfacet
  facet normal 1 0 0
    outer loop
      vertex 9.1 4.1 0
      vertex 9.1 8.2 0
      vertex 9.1 8.2 0.1
    endloop
  endfacet
  facet normal 0 -1 0
    outer loop
      vertex 9.1 4.1 2.8
      vertex -3.13156e-16 4.1 2.8
      vertex 9.1 4.1 0
    endloop
  endfacet
  facet normal 0 -1 0
    outer loop
      vertex -3.13156e-16 4.1 2.8
      vertex -3.13156e-16 4.1 0
      vertex 9.1 4.1 0
    endloop
  endfacet
  facet normal 0 1 0
    outer loop
      vertex 0 8.2 2.8
      vertex 9.1 8.2 2.8
      vertex -1.27055e-19 8.2 2.7
    endloop
  endfacet
  facet normal 0 1 0
    outer loop
      vertex 9.1 8.2 2.8
      vertex 9.1 8.2 2.7
      vertex -1.27055e-19 8.2 2.7
    endloop
  endfacet
  facet normal 0 0 1
    outer loop
      vertex 9.1 4.1 2.8
      vertex 9.1 8.2 2.8
      vertex -3.13156e-16 4.1 2.8
    endloop
  endfacet
  facet normal 0 0 1
    outer loop
      vertex 9.1 8.2 2.8
      vertex 0 8.2 2.8
      vertex -3.13156e-16 4.1 2.8
    endloop
  endfacet
endsolid Onshape
