solid Onshape
  facet normal 0 0 1
    outer loop
      vertex 9.1 4.4 0.1
      vertex 9.1 8.2 0.1
      vertex -1.27055e-19 4.4 0.1
    endloop
  endfacet
  facet normal 0 0 1
    outer loop
      vertex 9.1 8.2 0.1
      vertex -1.27055e-19 8.2 0.1
      vertex -1.27055e-19 4.4 0.1
    endloop
  endfacet
  facet normal 0 1 0
    outer loop
      vertex 9.1 4.4 0.1
      vertex -1.27055e-19 4.4 0.1
      vertex 9.1 4.4 2.7
    endloop
  endfacet
  facet normal 0 1 0
    outer loop
      vertex -1.27055e-19 4.4 0.1
      vertex -1.27055e-19 4.4 2.7
      vertex 9.1 4.4 2.7
    endloop
  endfacet
  facet normal 0 0 -1
    outer loop
      vertex 9.1 4.4 2.7
      vertex -1.27055e-19 4.4 2.7
      vertex 9.1 8.2 2.7
    endloop
  endfacet
  facet normal 0 0 -1
    outer loop
      vertex -1.27055e-19 4.4 2.7
      vertex -1.27055e-19 8.2 2.7
      vertex 9.1 8.2 2.7
    endloop
  endfacet
  facet normal 0 0 -1
    outer loop
      vertex 9.1 8.2 0
      vertex 9.1 4.1 0
      vertex 0 8.2 0
    endloop
  endfacet
  facet normal 0 0 -1
    outer loop
      vertex 9.1 4.1 0
      vertex -3.13156e-16 4.1 0
      vertex 0 8.2 0
    endloop
  endfacet
  facet normal -1 0 -1.27055e-18
    outer loop
      vertex -1.27055e-19 8.2 0.1
      vertex 0 8.2 0
      vertex -1.27055e-19 4.4 0.1
    endloop
  endfacet
  facet normal -1 7.63796e-17 2.90116e-15
    outer loop
      vertex 0 8.2 0
      vertex -3.13156e-16 4.1 0
      vertex -1.27055e-19 4.4 0.1
    endloop
  endfacet
  facet normal -1 1.04343e-15 0
    outer loop
      vertex -1.27055e-19 4.4 0.1
      vertex -3.13156e-16 4.1 0
      vertex -1.27055e-19 4.4 2.7
    endloop
  endfacet
  facet normal -1 1.04343e-15 0
    outer loop
      vertex -3.13156e-16 4.1 0
      vertex -3.13156e-16 4.1 2.8
      vertex -1.27055e-19 4.4 2.7
    endloop
  endfacet
  facet normal -1 0 -3.13029e-15
    outer loop
      vertex -1.27055e-19 4.4 2.7
      vertex -3.13156e-16 4.1 2.8
      vertex -1.27055e-19 8.2 2.7
    endloop
  endfacet
  facet normal -1 7.63796e-17 1.27055e-18
    outer loop
      vertex -3.13156e-16 4.1 2.8
      vertex 0 8.2 2.8
      vertex -1.27055e-19 8.2 2.7
    endloop
  endfacet
  facet normal 0 1 0
    outer loop
      vertex 9.1 8.2 0.1
      vertex 9.1 8.2 0
      vertex -1.27055e-19 8.2 0.1
    endloop
  endfacet
  facet normal 0 1 0
    outer loop
      vertex 9.1 8.2 0
      vertex 0 8.2 0
      vertex -1.27055e-19 8.2 0.1
    endloop
  endfacet
  facet normal 1 0 0
    outer loop
      vertex 9.1 8.2 2.7
      vertex 9.1 8.2 2.8
      vertex 9.1 4.4 2.7
    endloop
  endfacet
  facet normal 1 0 0
    outer loop
      vertex 9.1 8.2 2.8
      vertex 9.1 4.1 2.8
      vertex 9.1 4.4 2.7
    endloop
  endfacet
  facet normal 1 0 0
    outer loop
      vertex 9.1 4.4 2.7
      vertex 9.1 4.1 2.8
      vertex 9.1 4.4 0.1
    endloop
  endfacet
  facet normal 1 0 0
    outer loop
      vertex 9.1 4.1 2.8
      vertex 9.1 4.1 0
      vertex 9.1 4.4 0.1
    endloop
  endfacet
  facet normal 1 0 0
    outer loop
      vertex 9.1 4.4 0.1
      vertex 9.1 4.1 0
      vertex 9.1 8.2 0.1
    endloop
  endfacet
  facet normal 1 0 0
    outer loop
      vertex 9.1 4.1 0
      vertex 9.1 8.2 0
      vertex 9.1 8.2 0.1
    endloop
  endfacet
  facet normal 0 -1 0
    outer loop
      vertex 9.1 4.1 2.8
      vertex -3.13156e-16 4.1 2.8
      vertex 9.1 4.1 0
    endloop
  endfacet
  facet normal 0 -1 0
    outer loop
      vertex -3.13156e-16 4.1 2.8
      vertex -3.13156e-16 4.1 0
      vertex 9.1 4.1 0
    endloop
  endfacet
  facet normal 0 1 0
    outer loop
      vertex 0 8.2 2.8
      vertex 9.1 8.2 2.8
      vertex -1.27055e-19 8.2 2.7
    endloop
  endfacet
  facet normal 0 1 0
    outer loop
      vertex 9.1 8.2 2.8
      vertex 9.1 8.2 2.7
      vertex -1.27055e-19 8.2 2.7
    endloop
  endfacet
  facet normal 0 0 1
    outer loop
      vertex 9.1 4.1 2.8
      vertex 9.1 8.2 2.8
      vertex -3.13156e-16 4.1 2.8
    endloop
  endfacet
  facet normal 0 0 1
    outer loop
      vertex 9.1 8.2 2.8
      vertex 0 8.2 2.8
      vertex -3.13156e-16 4.1 2.8
    endloop
  endfacet
  facet normal 0 0 1
    outer loop
      vertex 1.38778e-15 3.8 0.1
      vertex 1.38778e-15 6.93889e-16 0.1
      vertex 9.1 3.8 0.1
    endloop
  endfacet
  facet normal 0 0 1
    outer loop
      vertex 1.38778e-15 6.93889e-16 0.1
      vertex 9.1 -6.93889e-16 0.1
      vertex 9.1 3.8 0.1
    endloop
  endfacet
  facet normal 0 -1 0
    outer loop
      vertex 1.38778e-15 3.8 0.1
      vertex 9.1 3.8 0.1
      vertex 1.38778e-15 3.8 2.7
    endloop
  endfacet
  facet normal 0 -1 0
    outer loop
      vertex 9.1 3.8 0.1
      vertex 9.1 3.8 2.7
      vertex 1.38778e-15 3.8 2.7
    endloop
  endfacet
  facet normal 0 0 -1
    outer loop
      vertex 1.38778e-15 3.8 2.7
      vertex 9.1 3.8 2.7
      vertex 1.38778e-15 6.93889e-16 2.7
    endloop
  endfacet
  facet normal 0 0 -1
    outer loop
      vertex 9.1 3.8 2.7
      vertex 9.1 -6.93889e-16 2.7
      vertex 1.38778e-15 6.93889e-16 2.7
    endloop
  endfacet
  facet normal 0 0 -1
    outer loop
      vertex 1.38778e-15 6.93889e-16 0
      vertex 0 4.1 0
      vertex 9.1 -6.93889e-16 0
    endloop
  endfacet
  facet normal 0 0 -1
    outer loop
      vertex 0 4.1 0
      vertex 9.1 4.1 0
      vertex 9.1 -6.93889e-16 0
    endloop
  endfacet
  facet normal 1 0 0
    outer loop
      vertex 9.1 -6.93889e-16 0.1
      vertex 9.1 -6.93889e-16 0
      vertex 9.1 3.8 0.1
    endloop
  endfacet
  facet normal 1 0 0
    outer loop
      vertex 9.1 -6.93889e-16 0
      vertex 9.1 4.1 0
      vertex 9.1 3.8 0.1
    endloop
  endfacet
  facet normal 1 0 0
    outer loop
      vertex 9.1 3.8 0.1
      vertex 9.1 4.1 0
      vertex 9.1 3.8 2.7
    endloop
  endfacet
  facet normal 1 0 0
    outer loop
      vertex 9.1 4.1 0
      vertex 9.1 4.1 2.8
      vertex 9.1 3.8 2.7
    endloop
  endfacet
  facet normal 1 0 0
    outer loop
      vertex 9.1 3.8 2.7
      vertex 9.1 4.1 2.8
      vertex 9.1 -6.93889e-16 2.7
    endloop
  endfacet
  facet normal 1 0 0
    outer loop
      vertex 9.1 4.1 2.8
      vertex 9.1 -6.93889e-16 2.8
      vertex 9.1 -6.93889e-16 2.7
    endloop
  endfacet
  facet normal -1.52503e-16 -1 0
    outer loop
      vertex 1.38778e-15 6.93889e-16 0.1
      vertex 1.38778e-15 6.93889e-16 0
      vertex 9.1 -6.93889e-16 0.1
    endloop
  endfacet
  facet normal -1.52503e-16 -1 0
    outer loop
      vertex 1.38778e-15 6.93889e-16 0
      vertex 9.1 -6.93889e-16 0
      vertex 9.1 -6.93889e-16 0.1
    endloop
  endfacet
  facet normal -1 0 0
    outer loop
      vertex 1.38778e-15 6.93889e-16 2.7
      vertex 1.38778e-15 6.93889e-16 2.8
      vertex 1.38778e-15 3.8 2.7
    endloop
  endfacet
  facet normal -1 -3.38483e-16 -1.28623e-14
    outer loop
      vertex 1.38778e-15 6.93889e-16 2.8
      vertex 0 4.1 2.8
      vertex 1.38778e-15 3.8 2.7
    endloop
  endfacet
  facet normal -1 -4.62593e-15 0
    outer loop
      vertex 1.38778e-15 3.8 2.7
      vertex 0 4.1 2.8
      vertex 1.38778e-15 3.8 0.1
    endloop
  endfacet
  facet normal -1 -4.62593e-15 0
    outer loop
      vertex 0 4.1 2.8
      vertex 0 4.1 0
      vertex 1.38778e-15 3.8 0.1
    endloop
  endfacet
  facet normal -1 0 1.38778e-14
    outer loop
      vertex 1.38778e-15 3.8 0.1
      vertex 0 4.1 0
      vertex 1.38778e-15 6.93889e-16 0.1
    endloop
  endfacet
  facet normal -1 -3.38483e-16 0
    outer loop
      vertex 0 4.1 0
      vertex 1.38778e-15 6.93889e-16 0
      vertex 1.38778e-15 6.93889e-16 0.1
    endloop
  endfacet
  facet normal 0 1 0
    outer loop
      vertex 0 4.1 2.8
      vertex 9.1 4.1 2.8
      vertex 0 4.1 0
    endloop
  endfacet
  facet normal 0 1 0
    outer loop
      vertex 9.1 4.1 2.8
      vertex 9.1 4.1 0
      vertex 0 4.1 0
    endloop
  endfacet
  facet normal -1.52503e-16 -1 0
    outer loop
      vertex 9.1 -6.93889e-16 2.8
      vertex 1.38778e-15 6.93889e-16 2.8
      vertex 9.1 -6.93889e-16 2.7
    endloop
  endfacet
  facet normal -1.52503e-16 -1 0
    outer loop
      vertex 1.38778e-15 6.93889e-16 2.8
      vertex 1.38778e-15 6.93889e-16 2.7
      vertex 9.1 -6.93889e-16 2.7
    endloop
  endfacet
  facet normal 0 0 1
    outer loop
      vertex 0 4.1 2.8
      vertex 1.38778e-15 6.93889e-16 2.8
      vertex 9.1 4.1 2.8
    endloop
  endfacet
  facet normal 0 0 1
    outer loop
      vertex 1.38778e-15 6.93889e-16 2.8
      vertex 9.1 -6.93889e-16 2.8
      vertex 9.1 4.1 2.8
    endloop
  endfacet
endsolid Onshape
