solid Onshape
  facet normal -0.512493 0 -0.858691
    outer loop
      vertex 2.63132 0.75 -0.941899
      vertex 2.63132 3.33067e-16 -0.941899
      vertex 1.52205 0.75 -0.279855
    endloop
  endfacet
  facet normal -0.512493 0 -0.858691
    outer loop
      vertex 2.63132 3.33067e-16 -0.941899
      vertex 1.52205 3.33067e-16 -0.279855
      vertex 1.52205 0.75 -0.279855
    endloop
  endfacet
  facet normal 0.892844 0 -0.450365
    outer loop
      vertex 2.63132 3.33067e-16 -0.941899
      vertex 2.63132 0.75 -0.941899
      vertex 3.86916 1.33227e-16 1.51211
    endloop
  endfacet
  facet normal 0.892844 0 -0.450365
    outer loop
      vertex 2.63132 0.75 -0.941899
      vertex 3.86916 0.75 1.51211
      vertex 3.86916 1.33227e-16 1.51211
    endloop
  endfacet
  facet normal -3.73563e-17 -1 -6.25912e-17
    outer loop
      vertex 2.63132 3.33067e-16 -0.941899
      vertex 3.86916 1.33227e-16 1.51211
      vertex 1.52205 3.33067e-16 -0.279855
    endloop
  endfacet
  facet normal -4.08239e-17 -1 -5.80493e-17
    outer loop
      vertex 3.86916 1.33227e-16 1.51211
      vertex 3.15843 1.33227e-16 2.01193
      vertex 1.52205 3.33067e-16 -0.279855
    endloop
  endfacet
  facet normal -0.813836 0 0.581094
    outer loop
      vertex 1.52205 3.33067e-16 -0.279855
      vertex 3.15843 1.33227e-16 2.01193
      vertex 3.15843 0.75 2.01193
    endloop
  endfacet
  facet normal -0.813836 0 0.581094
    outer loop
      vertex 1.52205 0.75 -0.279855
      vertex 1.52205 3.33067e-16 -0.279855
      vertex 3.15843 0.75 2.01193
    endloop
  endfacet
  facet normal 0 1 0
    outer loop
      vertex 1.52205 0.75 -0.279855
      vertex 3.15843 0.75 2.01193
      vertex 3.86916 0.75 1.51211
    endloop
  endfacet
  facet normal 0 1 0
    outer loop
      vertex 3.15843 0.75 2.01193
      vertex 2.75829 0.75 3.54056
      vertex 3.86916 0.75 1.51211
    endloop
  endfacet
  facet normal 0 1 0
    outer loop
      vertex 3.86916 0.75 1.51211
      vertex 2.75829 0.75 3.54056
      vertex 4.16575 0.75 5.87502
    endloop
  endfacet
  facet normal 0 1 0
    outer loop
      vertex 2.63132 0.75 -0.941899
      vertex 1.52205 0.75 -0.279855
      vertex 3.86916 0.75 1.51211
    endloop
  endfacet
  facet normal -0.967406 0 -0.253231
    outer loop
      vertex 3.15843 0.75 2.01193
      vertex 3.15843 1.33227e-16 2.01193
      vertex 2.75829 0.75 3.54056
    endloop
  endfacet
  facet normal -0.967406 0 -0.253231
    outer loop
      vertex 3.15843 1.33227e-16 2.01193
      vertex 2.75829 0 3.54056
      vertex 2.75829 0.75 3.54056
    endloop
  endfacet
  facet normal 0.997697 0 -0.067825
    outer loop
      vertex 3.86916 0.75 1.51211
      vertex 4.16575 0.75 5.87502
      vertex 4.16575 -1.33227e-16 5.87502
    endloop
  endfacet
  facet normal 0.997697 0 -0.067825
    outer loop
      vertex 3.86916 1.33227e-16 1.51211
      vertex 3.86916 0.75 1.51211
      vertex 4.16575 -1.33227e-16 5.87502
    endloop
  endfacet
  facet normal 7.48293e-18 -1 -6.1581e-17
    outer loop
      vertex 3.86916 1.33227e-16 1.51211
      vertex 4.16575 -1.33227e-16 5.87502
      vertex 2.75829 0 3.54056
    endloop
  endfacet
  facet normal -7.51218e-17 -1 -1.06819e-16
    outer loop
      vertex 2.75829 0 3.54056
      vertex 3.15843 1.33227e-16 2.01193
      vertex 3.86916 1.33227e-16 1.51211
    endloop
  endfacet
  facet normal -0.856393 0 0.516325
    outer loop
      vertex 2.75829 0 3.54056
      vertex 4.16575 -1.33227e-16 5.87502
      vertex 4.16575 0.75 5.87502
    endloop
  endfacet
  facet normal -0.856393 0 0.516325
    outer loop
      vertex 2.75829 0.75 3.54056
      vertex 2.75829 0 3.54056
      vertex 4.16575 0.75 5.87502
    endloop
  endfacet
  facet normal 0.5 0 0.866025
    outer loop
      vertex 1.9353 -2.66454e-16 0.148194
      vertex 1.9353 0.75 0.148194
      vertex 0.871834 -1.33227e-16 0.762184
    endloop
  endfacet
  facet normal 0.5 0 0.866025
    outer loop
      vertex 1.9353 0.75 0.148194
      vertex 0.871834 0.75 0.762184
      vertex 0.871834 -1.33227e-16 0.762184
    endloop
  endfacet
  facet normal 0 1 0
    outer loop
      vertex 1.9353 0.75 0.148194
      vertex 2.63178 0.75 -0.942152
      vertex 1.1103 0.75 -1.02094
    endloop
  endfacet
  facet normal 0.0517143 0 -0.998662
    outer loop
      vertex 2.63178 0.75 -0.942152
      vertex 2.63178 -5.9952e-16 -0.942152
      vertex 1.1103 0.75 -1.02094
    endloop
  endfacet
  facet normal 0.0517143 0 -0.998662
    outer loop
      vertex 2.63178 -5.9952e-16 -0.942152
      vertex 1.1103 -5.32907e-16 -1.02094
      vertex 1.1103 0.75 -1.02094
    endloop
  endfacet
  facet normal -5.76917e-17 -1 2.68617e-16
    outer loop
      vertex 2.63178 -5.9952e-16 -0.942152
      vertex 1.9353 -2.66454e-16 0.148194
      vertex 1.1103 -5.32907e-16 -1.02094
    endloop
  endfacet
  facet normal 9.34925e-17 -1 1.61934e-16
    outer loop
      vertex 1.9353 -2.66454e-16 0.148194
      vertex 0.737492 -5.32907e-16 -0.805702
      vertex 1.1103 -5.32907e-16 -1.02094
    endloop
  endfacet
  facet normal -0.951056 0 -0.309018
    outer loop
      vertex -1.14601 -3.33067e-16 -0.549662
      vertex -1.23871 -1.9984e-16 -0.264345
      vertex -1.14601 0.45 -0.549662
    endloop
  endfacet
  facet normal -0.951056 0 -0.309018
    outer loop
      vertex -1.23871 -1.9984e-16 -0.264345
      vertex -1.23871 0.45 -0.264345
      vertex -1.14601 0.45 -0.549662
    endloop
  endfacet
  facet normal 2.17589e-17 -1 4.74013e-16
    outer loop
      vertex -1.23871 -1.9984e-16 -0.264345
      vertex -1.14601 -3.33067e-16 -0.549662
      vertex -0.767037 -2.66454e-16 -0.426527
    endloop
  endfacet
  facet normal 1.11126e-17 -1 -5.73825e-16
    outer loop
      vertex -0.85879 -2.66454e-16 -0.140901
      vertex -1.23871 -1.9984e-16 -0.264345
      vertex -0.296297 -2.66454e-16 -0.130008
    endloop
  endfacet
  facet normal -1.07445e-16 -1 2.57892e-16
    outer loop
      vertex -1.23871 -1.9984e-16 -0.264345
      vertex -0.108132 -3.33067e-16 -0.309912
      vertex -0.296297 -2.66454e-16 -0.130008
    endloop
  endfacet
  facet normal -0.309017 0 0.951056
    outer loop
      vertex -1.23871 -1.9984e-16 -0.264345
      vertex -0.85879 -2.66454e-16 -0.140901
      vertex -1.23871 0.45 -0.264345
    endloop
  endfacet
  facet normal -0.309017 0 0.951056
    outer loop
      vertex -0.85879 -2.66454e-16 -0.140901
      vertex -0.85879 0.45 -0.140901
      vertex -1.23871 0.45 -0.264345
    endloop
  endfacet
  facet normal 0 1 0
    outer loop
      vertex -1.23871 0.45 -0.264345
      vertex -0.85879 0.45 -0.140901
      vertex -1.14601 0.45 -0.549662
    endloop
  endfacet
  facet normal 0 1 0
    outer loop
      vertex -0.85879 0.45 -0.140901
      vertex 0.360358 0.45 0.747824
      vertex -1.14601 0.45 -0.549662
    endloop
  endfacet
  facet normal 0 1 0
    outer loop
      vertex -1.14601 0.45 -0.549662
      vertex 0.360358 0.45 0.747824
      vertex -0.272961 0.45 0.129276
    endloop
  endfacet
  facet normal 0 1 0
    outer loop
      vertex 0.360358 0.45 0.747824
      vertex -0.0556962 0.45 0.27269
      vertex -0.272961 0.45 0.129276
    endloop
  endfacet
  facet normal 0 1 0
    outer loop
      vertex -0.767037 0.45 -0.426527
      vertex -1.14601 0.45 -0.549662
      vertex -0.272961 0.45 0.129276
    endloop
  endfacet
  facet normal 0.309017 0 -0.951057
    outer loop
      vertex -1.14601 0.45 -0.549662
      vertex -0.767037 0.45 -0.426527
      vertex -0.767037 -2.66454e-16 -0.426527
    endloop
  endfacet
  facet normal 0.309017 0 -0.951057
    outer loop
      vertex -1.14601 -3.33067e-16 -0.549662
      vertex -1.14601 0.45 -0.549662
      vertex -0.767037 -2.66454e-16 -0.426527
    endloop
  endfacet
  facet normal -7.42916e-18 -1 3.83621e-16
    outer loop
      vertex -0.876041 -1.9984e-16 0.0324088
      vertex -0.85879 -2.66454e-16 -0.140901
      vertex -0.296297 -2.66454e-16 -0.130008
    endloop
  endfacet
  facet normal -0.995083 0 -0.0990491
    outer loop
      vertex -0.85879 -2.66454e-16 -0.140901
      vertex -0.876041 -1.9984e-16 0.0324088
      vertex -0.85879 0.45 -0.140901
    endloop
  endfacet
  facet normal -0.995083 0 -0.0990491
    outer loop
      vertex -0.876041 -1.9984e-16 0.0324088
      vertex -0.876041 0.45 0.0324088
      vertex -0.85879 0.45 -0.140901
    endloop
  endfacet
  facet normal 0 1 0
    outer loop
      vertex -0.85879 0.45 -0.140901
      vertex -0.876041 0.45 0.0324088
      vertex 0.360358 0.45 0.747824
    endloop
  endfacet
  facet normal 0 1 0
    outer loop
      vertex -0.876041 0.45 0.0324088
      vertex -0.86183 0.45 0.0926996
      vertex 0.360358 0.45 0.747824
    endloop
  endfacet
  facet normal 0 1 0
    outer loop
      vertex 0.360358 0.45 0.747824
      vertex -0.86183 0.45 0.0926996
      vertex -0.767586 0.45 0.377517
    endloop
  endfacet
  facet normal 0 1 0
    outer loop
      vertex -0.86183 0.45 0.0926996
      vertex -1.23871 0.45 0.215156
      vertex -0.767586 0.45 0.377517
    endloop
  endfacet
  facet normal 0 1 0
    outer loop
      vertex -0.767586 0.45 0.377517
      vertex -1.23871 0.45 0.215156
      vertex -1.14601 0.45 0.500472
    endloop
  endfacet
  facet normal -0.909005 0 -0.416786
    outer loop
      vertex -0.767037 -2.66454e-16 -0.426527
      vertex -0.767037 0.45 -0.426527
      vertex -0.729584 0.45 -0.508211
    endloop
  endfacet
  facet normal -0.909005 0 -0.416786
    outer loop
      vertex -0.729584 -2.66454e-16 -0.508211
      vertex -0.767037 -2.66454e-16 -0.426527
      vertex -0.729584 0.45 -0.508211
    endloop
  endfacet
  facet normal -6.75338e-17 -1 -3.09648e-17
    outer loop
      vertex -0.767037 -2.66454e-16 -0.426527
      vertex -0.729584 -2.66454e-16 -0.508211
      vertex 0.149843 -3.33067e-16 -0.274967
    endloop
  endfacet
  facet normal 9.86859e-16 -1 -4.00646e-15
    outer loop
      vertex -0.729584 -2.66454e-16 -0.508211
      vertex 1.9353 -2.66454e-16 0.148194
      vertex 0.149843 -3.33067e-16 -0.274967
    endloop
  endfacet
  facet normal -3.8835e-17 -1 3.21276e-16
    outer loop
      vertex 0.149843 -3.33067e-16 -0.274967
      vertex 1.9353 -2.66454e-16 0.148194
      vertex 0.283366 -2.66454e-16 -0.0514867
    endloop
  endfacet
  facet normal -3.1603e-17 -1 2.61446e-16
    outer loop
      vertex 1.9353 -2.66454e-16 0.148194
      vertex 0.191893 -1.9984e-16 0.192244
      vertex 0.283366 -2.66454e-16 -0.0514867
    endloop
  endfacet
  facet normal 0.691062 0 0.722795
    outer loop
      vertex -0.296297 -2.66454e-16 -0.130008
      vertex -0.108132 -3.33067e-16 -0.309912
      vertex -0.108132 0.45 -0.309912
    endloop
  endfacet
  facet normal 0.691062 0 0.722795
    outer loop
      vertex -0.296297 0.45 -0.130008
      vertex -0.296297 -2.66454e-16 -0.130008
      vertex -0.108132 0.45 -0.309912
    endloop
  endfacet
  facet normal 0.995974 0 -0.089641
    outer loop
      vertex -0.296297 -2.66454e-16 -0.130008
      vertex -0.296297 0.45 -0.130008
      vertex -0.272961 -1.9984e-16 0.129276
    endloop
  endfacet
  facet normal 0.995974 0 -0.089641
    outer loop
      vertex -0.296297 0.45 -0.130008
      vertex -0.272961 0.45 0.129276
      vertex -0.272961 -1.9984e-16 0.129276
    endloop
  endfacet
  facet normal -1.60472e-17 -1 2.58358e-16
    outer loop
      vertex -0.296297 -2.66454e-16 -0.130008
      vertex -0.272961 -1.9984e-16 0.129276
      vertex -0.86183 -1.9984e-16 0.0926996
    endloop
  endfacet
  facet normal 0 -1 0
    outer loop
      vertex -0.272961 -1.9984e-16 0.129276
      vertex -1.23871 -1.9984e-16 0.215156
      vertex -0.86183 -1.9984e-16 0.0926996
    endloop
  endfacet
  facet normal 3.29792e-16 -1 -2.43462e-15
    outer loop
      vertex 0.149843 -3.33067e-16 -0.274967
      vertex -0.108132 -3.33067e-16 -0.309912
      vertex -0.767037 -2.66454e-16 -0.426527
    endloop
  endfacet
  facet normal -1.14734e-16 -1 7.70509e-17
    outer loop
      vertex -0.108132 -3.33067e-16 -0.309912
      vertex -1.23871 -1.9984e-16 -0.264345
      vertex -0.767037 -2.66454e-16 -0.426527
    endloop
  endfacet
  facet normal -0.134233 0 0.99095
    outer loop
      vertex -0.108132 -3.33067e-16 -0.309912
      vertex 0.149843 -3.33067e-16 -0.274967
      vertex -0.108132 0.45 -0.309912
    endloop
  endfacet
  facet normal -0.134233 0 0.99095
    outer loop
      vertex 0.149843 -3.33067e-16 -0.274967
      vertex 0.149843 0.45 -0.274967
      vertex -0.108132 0.45 -0.309912
    endloop
  endfacet
  facet normal -0.951056 0 0.309018
    outer loop
      vertex -1.23871 0.45 0.215156
      vertex -1.23871 -1.9984e-16 0.215156
      vertex -1.14601 -1.33227e-16 0.500472
    endloop
  endfacet
  facet normal -0.309017 0 -0.951057
    outer loop
      vertex -1.23871 -1.9984e-16 0.215156
      vertex -1.23871 0.45 0.215156
      vertex -0.86183 -1.9984e-16 0.0926996
    endloop
  endfacet
  facet normal -0.309017 0 -0.951057
    outer loop
      vertex -1.23871 0.45 0.215156
      vertex -0.86183 0.45 0.0926996
      vertex -0.86183 -1.9984e-16 0.0926996
    endloop
  endfacet
  facet normal 6.86151e-17 -1 2.11178e-16
    outer loop
      vertex -1.14601 -1.33227e-16 0.500472
      vertex -1.23871 -1.9984e-16 0.215156
      vertex -0.767586 -1.33227e-16 0.377517
    endloop
  endfacet
  facet normal -2.32321e-17 -1 4.77692e-16
    outer loop
      vertex -1.23871 -1.9984e-16 0.215156
      vertex -0.0556962 -1.9984e-16 0.27269
      vertex -0.767586 -1.33227e-16 0.377517
    endloop
  endfacet
  facet normal 1.09115e-17 -1 7.09566e-16
    outer loop
      vertex -0.767586 -1.33227e-16 0.377517
      vertex -0.0556962 -1.9984e-16 0.27269
      vertex 1.9353 -2.66454e-16 0.148194
    endloop
  endfacet
  facet normal -4.14306e-17 -1 -1.27511e-16
    outer loop
      vertex -0.0556962 -1.9984e-16 0.27269
      vertex 0.191893 -1.9984e-16 0.192244
      vertex 1.9353 -2.66454e-16 0.148194
    endloop
  endfacet
  facet normal 0.309014 0 0.951057
    outer loop
      vertex -1.14601 -1.33227e-16 0.500472
      vertex -0.767586 -1.33227e-16 0.377517
      vertex -1.14601 0.45 0.500472
    endloop
  endfacet
  facet normal 0.309014 0 0.951057
    outer loop
      vertex -0.767586 -1.33227e-16 0.377517
      vertex -0.767586 0.45 0.377517
      vertex -1.14601 0.45 0.500472
    endloop
  endfacet
  facet normal -0.951056 0 0.309018
    outer loop
      vertex -1.14601 -1.33227e-16 0.500472
      vertex -1.14601 0.45 0.500472
      vertex -1.23871 0.45 0.215156
    endloop
  endfacet
  facet normal -0.973326 0 0.229426
    outer loop
      vertex -0.86183 -1.9984e-16 0.0926996
      vertex -0.86183 0.45 0.0926996
      vertex -0.876041 0.45 0.0324088
    endloop
  endfacet
  facet normal -0.973326 0 0.229426
    outer loop
      vertex -0.876041 -1.9984e-16 0.0324088
      vertex -0.86183 -1.9984e-16 0.0926996
      vertex -0.876041 0.45 0.0324088
    endloop
  endfacet
  facet normal -1.07784e-16 -1 2.54061e-17
    outer loop
      vertex -0.86183 -1.9984e-16 0.0926996
      vertex -0.876041 -1.9984e-16 0.0324088
      vertex -0.296297 -2.66454e-16 -0.130008
    endloop
  endfacet
  facet normal -0.846097 0 0.53303
    outer loop
      vertex -0.767586 0.45 0.377517
      vertex -0.767586 -1.33227e-16 0.377517
      vertex -0.65956 -6.66134e-17 0.548989
    endloop
  endfacet
  facet normal -0.846097 0 0.53303
    outer loop
      vertex -0.65956 0.45 0.548989
      vertex -0.767586 0.45 0.377517
      vertex -0.65956 -6.66134e-17 0.548989
    endloop
  endfacet
  facet normal 0 1 0
    outer loop
      vertex -0.767586 0.45 0.377517
      vertex -0.65956 0.45 0.548989
      vertex 0.112451 0.45 0.828374
    endloop
  endfacet
  facet normal 0 1 0
    outer loop
      vertex -0.65956 0.45 0.548989
      vertex -0.438417 0.45 0.72706
      vertex 0.112451 0.45 0.828374
    endloop
  endfacet
  facet normal 0 1 0
    outer loop
      vertex 0.112451 0.45 0.828374
      vertex -0.438417 0.45 0.72706
      vertex -0.171436 0.45 0.823678
    endloop
  endfacet
  facet normal -1.55021e-17 -1 3.98245e-16
    outer loop
      vertex -0.65956 -6.66134e-17 0.548989
      vertex -0.767586 -1.33227e-16 0.377517
      vertex 1.9353 -2.66454e-16 0.148194
    endloop
  endfacet
  facet normal 0.550896 0 -0.834574
    outer loop
      vertex -0.272961 -1.9984e-16 0.129276
      vertex -0.272961 0.45 0.129276
      vertex -0.0556962 -1.9984e-16 0.27269
    endloop
  endfacet
  facet normal 0.550896 0 -0.834574
    outer loop
      vertex -0.272961 0.45 0.129276
      vertex -0.0556962 0.45 0.27269
      vertex -0.0556962 -1.9984e-16 0.27269
    endloop
  endfacet
  facet normal 0 -1 0
    outer loop
      vertex -0.272961 -1.9984e-16 0.129276
      vertex -0.0556962 -1.9984e-16 0.27269
      vertex -1.23871 -1.9984e-16 0.215156
    endloop
  endfacet
  facet normal -0.309016 0 -0.951057
    outer loop
      vertex -0.0556962 -1.9984e-16 0.27269
      vertex -0.0556962 0.45 0.27269
      vertex 0.191893 -1.9984e-16 0.192244
    endloop
  endfacet
  facet normal -0.309016 0 -0.951057
    outer loop
      vertex -0.0556962 0.45 0.27269
      vertex 0.191893 0.45 0.192244
      vertex 0.191893 -1.9984e-16 0.192244
    endloop
  endfacet
  facet normal 0 1 0
    outer loop
      vertex 0.112451 0.45 0.828374
      vertex 0.360358 0.45 0.747824
      vertex -0.767586 0.45 0.377517
    endloop
  endfacet
  facet normal 0 -1 0
    outer loop
      vertex 0.360358 0.45 0.747824
      vertex 0.112451 0.45 0.828374
      vertex 0.134574 0.45 0.821185
    endloop
  endfacet
  facet normal 0.309017 0 0.951056
    outer loop
      vertex 0.360358 0.45 0.747824
      vertex 0.134574 0.45 0.821185
      vertex 0.360358 -1.33227e-16 0.747824
    endloop
  endfacet
  facet normal 0.309017 0 0.951056
    outer loop
      vertex 0.134574 0.45 0.821185
      vertex 0.134574 -6.66134e-17 0.821185
      vertex 0.360358 -1.33227e-16 0.747824
    endloop
  endfacet
  facet normal -0.809017 0 0.587785
    outer loop
      vertex 0.360358 0.45 0.747824
      vertex 0.360358 -1.33227e-16 0.747824
      vertex 0.590605 0 1.06473
    endloop
  endfacet
  facet normal -0.809017 0 0.587785
    outer loop
      vertex 0.590605 0.45 1.06473
      vertex 0.360358 0.45 0.747824
      vertex 0.590605 0 1.06473
    endloop
  endfacet
  facet normal 0 1 0
    outer loop
      vertex 0.360358 0.45 0.747824
      vertex 0.590605 0.45 1.06473
      vertex 0.83331 0.45 0.888396
    endloop
  endfacet
  facet normal 0 1 0
    outer loop
      vertex -0.729584 0.45 -0.508211
      vertex -0.767037 0.45 -0.426527
      vertex -0.296297 0.45 -0.130008
    endloop
  endfacet
  facet normal 0 1 0
    outer loop
      vertex -0.767037 0.45 -0.426527
      vertex -0.272961 0.45 0.129276
      vertex -0.296297 0.45 -0.130008
    endloop
  endfacet
  facet normal -0.809017 0 0.587785
    outer loop
      vertex -0.864163 0.45 -0.937585
      vertex -0.864163 -3.9968e-16 -0.937585
      vertex -0.629001 -3.33067e-16 -0.613912
    endloop
  endfacet
  facet normal -0.587786 0 -0.809016
    outer loop
      vertex -0.864163 -3.9968e-16 -0.937585
      vertex -0.864163 0.45 -0.937585
      vertex -0.621458 0.45 -1.11392
    endloop
  endfacet
  facet normal -0.587786 0 -0.809016
    outer loop
      vertex -0.621458 -5.32907e-16 -1.11392
      vertex -0.864163 -3.9968e-16 -0.937585
      vertex -0.621458 0.45 -1.11392
    endloop
  endfacet
  facet normal -1.63378e-16 -1 5.30658e-16
    outer loop
      vertex -0.864163 -3.9968e-16 -0.937585
      vertex -0.621458 -5.32907e-16 -1.11392
      vertex -0.386495 -3.9968e-16 -0.790522
    endloop
  endfacet
  facet normal -4.48782e-17 -1 2.38411e-16
    outer loop
      vertex -0.629001 -3.33067e-16 -0.613912
      vertex -0.864163 -3.9968e-16 -0.937585
      vertex 1.9353 -2.66454e-16 0.148194
    endloop
  endfacet
  facet normal -1.83205e-16 -1 5.95057e-16
    outer loop
      vertex -0.864163 -3.9968e-16 -0.937585
      vertex -0.386495 -3.9968e-16 -0.790522
      vertex 1.9353 -2.66454e-16 0.148194
    endloop
  endfacet
  facet normal 3.22809e-17 -1 6.20818e-17
    outer loop
      vertex 1.9353 -2.66454e-16 0.148194
      vertex -0.386495 -3.9968e-16 -0.790522
      vertex -0.281953 -3.9968e-16 -0.844881
    endloop
  endfacet
  facet normal -1.25755e-16 -1 5.10539e-16
    outer loop
      vertex -0.729584 -2.66454e-16 -0.508211
      vertex -0.629001 -3.33067e-16 -0.613912
      vertex 1.9353 -2.66454e-16 0.148194
    endloop
  endfacet
  facet normal -0.724429 0 -0.68935
    outer loop
      vertex -0.629001 -3.33067e-16 -0.613912
      vertex -0.729584 -2.66454e-16 -0.508211
      vertex -0.629001 0.45 -0.613912
    endloop
  endfacet
  facet normal -0.724429 0 -0.68935
    outer loop
      vertex -0.729584 -2.66454e-16 -0.508211
      vertex -0.729584 0.45 -0.508211
      vertex -0.629001 0.45 -0.613912
    endloop
  endfacet
  facet normal -0.809017 0 0.587785
    outer loop
      vertex -0.629001 -3.33067e-16 -0.613912
      vertex -0.629001 0.45 -0.613912
      vertex -0.864163 0.45 -0.937585
    endloop
  endfacet
  facet normal 0 1 0
    outer loop
      vertex -0.864163 0.45 -0.937585
      vertex -0.629001 0.45 -0.613912
      vertex -0.621458 0.45 -1.11392
    endloop
  endfacet
  facet normal 0 1 0
    outer loop
      vertex -0.629001 0.45 -0.613912
      vertex -0.108132 0.45 -0.309912
      vertex -0.621458 0.45 -1.11392
    endloop
  endfacet
  facet normal 0 1 0
    outer loop
      vertex -0.621458 0.45 -1.11392
      vertex -0.108132 0.45 -0.309912
      vertex -0.386495 0.45 -0.790522
    endloop
  endfacet
  facet normal 0 1 0
    outer loop
      vertex -0.108132 0.45 -0.309912
      vertex -0.281953 0.45 -0.844881
      vertex -0.386495 0.45 -0.790522
    endloop
  endfacet
  facet normal 0.809017 0 -0.587785
    outer loop
      vertex -0.621458 0.45 -1.11392
      vertex -0.386495 0.45 -0.790522
      vertex -0.386495 -3.9968e-16 -0.790522
    endloop
  endfacet
  facet normal 0.809017 0 -0.587785
    outer loop
      vertex -0.621458 -5.32907e-16 -1.11392
      vertex -0.621458 0.45 -1.11392
      vertex -0.386495 -3.9968e-16 -0.790522
    endloop
  endfacet
  facet normal 0 1 0
    outer loop
      vertex -0.629001 0.45 -0.613912
      vertex -0.729584 0.45 -0.508211
      vertex -0.296297 0.45 -0.130008
    endloop
  endfacet
  facet normal -1.78789e-18 -1 2.13889e-16
    outer loop
      vertex 1.9353 -2.66454e-16 0.148194
      vertex 0.871834 -1.33227e-16 0.762184
      vertex 0.691152 -1.9984e-16 0.449234
    endloop
  endfacet
  facet normal -0.461335 0 -0.887226
    outer loop
      vertex -0.386495 -3.9968e-16 -0.790522
      vertex -0.386495 0.45 -0.790522
      vertex -0.281953 -3.9968e-16 -0.844881
    endloop
  endfacet
  facet normal -0.461335 0 -0.887226
    outer loop
      vertex -0.386495 0.45 -0.790522
      vertex -0.281953 0.45 -0.844881
      vertex -0.281953 -3.9968e-16 -0.844881
    endloop
  endfacet
  facet normal -0.148266 0 -0.988947
    outer loop
      vertex -0.281953 -3.9968e-16 -0.844881
      vertex -0.281953 0.45 -0.844881
      vertex -0.165426 -4.66294e-16 -0.862351
    endloop
  endfacet
  facet normal -0.148266 0 -0.988947
    outer loop
      vertex -0.281953 0.45 -0.844881
      vertex -0.165426 0.45 -0.862351
      vertex -0.165426 -4.66294e-16 -0.862351
    endloop
  endfacet
  facet normal -0.809017 0 -0.587785
    outer loop
      vertex -0.633067 -6.66134e-17 0.570321
      vertex -0.864163 -6.66134e-17 0.888396
      vertex -0.633067 0.45 0.570321
    endloop
  endfacet
  facet normal -0.809017 0 -0.587785
    outer loop
      vertex -0.864163 -6.66134e-17 0.888396
      vertex -0.864163 0.45 0.888396
      vertex -0.633067 0.45 0.570321
    endloop
  endfacet
  facet normal 2.15907e-16 -1 1.56866e-16
    outer loop
      vertex -0.864163 -6.66134e-17 0.888396
      vertex -0.633067 -6.66134e-17 0.570321
      vertex -0.438417 0 0.72706
    endloop
  endfacet
  facet normal 1.79638e-16 -1 1.30514e-16
    outer loop
      vertex -0.621458 0 1.06473
      vertex -0.864163 -6.66134e-17 0.888396
      vertex -0.389094 0 0.744909
    endloop
  endfacet
  facet normal 7.6429e-17 -1 -2.112e-16
    outer loop
      vertex -0.864163 -6.66134e-17 0.888396
      vertex -0.438417 0 0.72706
      vertex -0.389094 0 0.744909
    endloop
  endfacet
  facet normal -0.587786 0 0.809016
    outer loop
      vertex -0.864163 -6.66134e-17 0.888396
      vertex -0.621458 0 1.06473
      vertex -0.864163 0.45 0.888396
    endloop
  endfacet
  facet normal -0.587786 0 0.809016
    outer loop
      vertex -0.621458 0 1.06473
      vertex -0.621458 0.45 1.06473
      vertex -0.864163 0.45 0.888396
    endloop
  endfacet
  facet normal 0 1 0
    outer loop
      vertex -0.864163 0.45 0.888396
      vertex -0.621458 0.45 1.06473
      vertex -0.389094 0.45 0.744909
    endloop
  endfacet
  facet normal 0 1 0
    outer loop
      vertex -0.633067 0.45 0.570321
      vertex -0.864163 0.45 0.888396
      vertex -0.438417 0.45 0.72706
    endloop
  endfacet
  facet normal 0 1 0
    outer loop
      vertex -0.864163 0.45 0.888396
      vertex -0.389094 0.45 0.744909
      vertex -0.438417 0.45 0.72706
    endloop
  endfacet
  facet normal 0 -1 0
    outer loop
      vertex -0.633067 0.45 0.570321
      vertex -0.438417 0.45 0.72706
      vertex -0.65956 0.45 0.548989
    endloop
  endfacet
  facet normal -0.62716 0 0.77889
    outer loop
      vertex -0.633067 0.45 0.570321
      vertex -0.65956 0.45 0.548989
      vertex -0.65956 -6.66134e-17 0.548989
    endloop
  endfacet
  facet normal -0.62716 0 0.77889
    outer loop
      vertex -0.633067 -6.66134e-17 0.570321
      vertex -0.633067 0.45 0.570321
      vertex -0.65956 -6.66134e-17 0.548989
    endloop
  endfacet
  facet normal 0.809018 0 0.587784
    outer loop
      vertex -0.621458 0 1.06473
      vertex -0.389094 0 0.744909
      vertex -0.389094 0.45 0.744909
    endloop
  endfacet
  facet normal 0.809018 0 0.587784
    outer loop
      vertex -0.621458 0.45 1.06473
      vertex -0.621458 0 1.06473
      vertex -0.389094 0.45 0.744909
    endloop
  endfacet
  facet normal 0 -1 0
    outer loop
      vertex -0.438417 0.45 0.72706
      vertex -0.389094 0.45 0.744909
      vertex -0.171436 0.45 0.823678
    endloop
  endfacet
  facet normal -0.340295 0 0.940319
    outer loop
      vertex -0.389094 0.45 0.744909
      vertex -0.389094 0 0.744909
      vertex -0.171436 -6.66134e-17 0.823678
    endloop
  endfacet
  facet normal -0.340295 0 0.940319
    outer loop
      vertex -0.171436 0.45 0.823678
      vertex -0.389094 0.45 0.744909
      vertex -0.171436 -6.66134e-17 0.823678
    endloop
  endfacet
  facet normal 7.32243e-12 1 -9.09396e-12
    outer loop
      vertex -0.633067 -6.66134e-17 0.570321
      vertex -0.65956 -6.66134e-17 0.548989
      vertex -0.438417 0 0.72706
    endloop
  endfacet
  facet normal -6.50418e-17 -1 4.54857e-16
    outer loop
      vertex -0.438417 0 0.72706
      vertex -0.65956 -6.66134e-17 0.548989
      vertex 0.691152 -1.9984e-16 0.449234
    endloop
  endfacet
  facet normal -1.18444e-16 -1 -2.68231e-16
    outer loop
      vertex -0.65956 -6.66134e-17 0.548989
      vertex 1.9353 -2.66454e-16 0.148194
      vertex 0.691152 -1.9984e-16 0.449234
    endloop
  endfacet
  facet normal -2.06289e-16 -1 -1.19419e-16
    outer loop
      vertex -0.171436 -6.66134e-17 0.823678
      vertex -0.438417 0 0.72706
      vertex 0.691152 -1.9984e-16 0.449234
    endloop
  endfacet
  facet normal -8.76235e-12 1 2.42134e-11
    outer loop
      vertex -0.438417 0 0.72706
      vertex -0.171436 -6.66134e-17 0.823678
      vertex -0.389094 0 0.744909
    endloop
  endfacet
  facet normal 0 1 0
    outer loop
      vertex 0.134574 0.45 0.821185
      vertex 0.112451 0.45 0.828374
      vertex -0.165426 0.45 1.21291
    endloop
  endfacet
  facet normal 0 1 0
    outer loop
      vertex 0.112451 0.45 0.828374
      vertex -0.165426 0.45 0.823778
      vertex -0.165426 0.45 1.21291
    endloop
  endfacet
  facet normal 0 1 0
    outer loop
      vertex -0.296297 0.45 -0.130008
      vertex -0.108132 0.45 -0.309912
      vertex -0.629001 0.45 -0.613912
    endloop
  endfacet
  facet normal -0.858449 0 0.5129
    outer loop
      vertex 0.149843 -3.33067e-16 -0.274967
      vertex 0.283366 -2.66454e-16 -0.0514867
      vertex 0.149843 0.45 -0.274967
    endloop
  endfacet
  facet normal -0.858449 0 0.5129
    outer loop
      vertex 0.283366 -2.66454e-16 -0.0514867
      vertex 0.283366 0.45 -0.0514867
      vertex 0.149843 0.45 -0.274967
    endloop
  endfacet
  facet normal -0.866025 0 0.5
    outer loop
      vertex 0.691152 -1.9984e-16 0.449234
      vertex 0.871834 -1.33227e-16 0.762184
      vertex 0.691152 0.45 0.449234
    endloop
  endfacet
  facet normal -0.866025 0 0.5
    outer loop
      vertex 0.871834 -1.33227e-16 0.762184
      vertex 0.871834 0.75 0.762184
      vertex 0.691152 0.45 0.449234
    endloop
  endfacet
  facet normal -0.866025 1.27205e-7 0.5
    outer loop
      vertex 0.691152 0.45 0.449234
      vertex 0.871834 0.75 0.762184
      vertex 0.496833 0.75 0.112665
    endloop
  endfacet
  facet normal 0.828009 0 0.560715
    outer loop
      vertex 0.691152 -1.9984e-16 0.449234
      vertex 0.691152 0.45 0.449234
      vertex 0.60939 -1.33227e-16 0.569972
    endloop
  endfacet
  facet normal 0.828009 0 0.560715
    outer loop
      vertex 0.691152 0.45 0.449234
      vertex 0.60939 0.45 0.569972
      vertex 0.60939 -1.33227e-16 0.569972
    endloop
  endfacet
  facet normal 0.601156 0 0.799132
    outer loop
      vertex 0.60939 -1.33227e-16 0.569972
      vertex 0.60939 0.45 0.569972
      vertex 0.604587 -1.33227e-16 0.573585
    endloop
  endfacet
  facet normal 0.601156 0 0.799132
    outer loop
      vertex 0.60939 0.45 0.569972
      vertex 0.604587 0.45 0.573585
      vertex 0.604587 -1.33227e-16 0.573585
    endloop
  endfacet
  facet normal 8.46015e-16 -1 1.12463e-15
    outer loop
      vertex 0.691152 -1.9984e-16 0.449234
      vertex 0.60939 -1.33227e-16 0.569972
      vertex 0.604587 -1.33227e-16 0.573585
    endloop
  endfacet
  facet normal 0 1 0
    outer loop
      vertex -0.108132 0.45 -0.309912
      vertex 0.149843 0.45 -0.274967
      vertex -0.281953 0.45 -0.844881
    endloop
  endfacet
  facet normal 0 1 0
    outer loop
      vertex 0.149843 0.45 -0.274967
      vertex -0.165426 0.45 -0.862351
      vertex -0.281953 0.45 -0.844881
    endloop
  endfacet
  facet normal -0.0166255 0 0.999862
    outer loop
      vertex -0.165426 0.45 0.823778
      vertex -0.171436 0.45 0.823678
      vertex -0.171436 -6.66134e-17 0.823678
    endloop
  endfacet
  facet normal 0 1 0
    outer loop
      vertex -0.171436 0.45 0.823678
      vertex -0.165426 0.45 0.823778
      vertex 0.112451 0.45 0.828374
    endloop
  endfacet
  facet normal 0 -1 0
    outer loop
      vertex -0.165426 -6.66134e-17 0.823778
      vertex -0.171436 -6.66134e-17 0.823678
      vertex 0.112451 -6.66134e-17 0.828374
    endloop
  endfacet
  facet normal -5.66886e-18 -1 3.4274e-16
    outer loop
      vertex -0.171436 -6.66134e-17 0.823678
      vertex 0.691152 -1.9984e-16 0.449234
      vertex 0.112451 -6.66134e-17 0.828374
    endloop
  endfacet
  facet normal -3.06571e-16 -1 -1.16542e-16
    outer loop
      vertex 0.112451 -6.66134e-17 0.828374
      vertex 0.691152 -1.9984e-16 0.449234
      vertex 0.360358 -1.33227e-16 0.747824
    endloop
  endfacet
  facet normal 7.59239e-16 -1 1.06422e-15
    outer loop
      vertex 0.691152 -1.9984e-16 0.449234
      vertex 0.604587 -1.33227e-16 0.573585
      vertex 0.360358 -1.33227e-16 0.747824
    endloop
  endfacet
  facet normal 1.97532e-16 -1 2.7688e-16
    outer loop
      vertex 0.360358 -1.33227e-16 0.747824
      vertex 0.604587 -1.33227e-16 0.573585
      vertex 0.590605 0 1.06473
    endloop
  endfacet
  facet normal -7.90166e-17 -1 2.69007e-16
    outer loop
      vertex 0.604587 -1.33227e-16 0.573585
      vertex 0.83331 -6.66134e-17 0.888396
      vertex 0.590605 0 1.06473
    endloop
  endfacet
  facet normal -0.0166255 0 0.999862
    outer loop
      vertex -0.171436 -6.66134e-17 0.823678
      vertex -0.165426 -6.66134e-17 0.823778
      vertex -0.165426 0.45 0.823778
    endloop
  endfacet
  facet normal -4.13223e-16 -1 1.05676e-15
    outer loop
      vertex -0.281953 -3.9968e-16 -0.844881
      vertex -0.165426 -4.66294e-16 -0.862351
      vertex 1.9353 -2.66454e-16 0.148194
    endloop
  endfacet
  facet normal -2.24051e-19 -1 1.98221e-16
    outer loop
      vertex -0.165426 -4.66294e-16 -0.862351
      vertex 0.134574 -4.66294e-16 -0.862012
      vertex 1.9353 -2.66454e-16 0.148194
    endloop
  endfacet
  facet normal -7.4471e-16 -1 1.52529e-15
    outer loop
      vertex 1.9353 -2.66454e-16 0.148194
      vertex 0.134574 -4.66294e-16 -0.862012
      vertex 0.278076 -5.32907e-16 -0.83562
    endloop
  endfacet
  facet normal -1 0 -1.07753e-6
    outer loop
      vertex -0.165426 -4.66294e-16 -0.862351
      vertex -0.165426 0.45 -0.862351
      vertex -0.165426 0.45 -1.26209
    endloop
  endfacet
  facet normal -1 0 -1.07753e-6
    outer loop
      vertex -0.165426 -5.9952e-16 -1.26209
      vertex -0.165426 -4.66294e-16 -0.862351
      vertex -0.165426 0.45 -1.26209
    endloop
  endfacet
  facet normal -3.76711e-19 -1 3.33281e-16
    outer loop
      vertex -0.165426 -4.66294e-16 -0.862351
      vertex -0.165426 -5.9952e-16 -1.26209
      vertex 0.134574 -4.66294e-16 -0.862012
    endloop
  endfacet
  facet normal -2.06753e-22 -1 3.32998e-16
    outer loop
      vertex -0.165426 -5.9952e-16 -1.26209
      vertex 0.134574 -5.9952e-16 -1.26209
      vertex 0.134574 -4.66294e-16 -0.862012
    endloop
  endfacet
  facet normal 0 1 0
    outer loop
      vertex -0.165426 0.45 -1.26209
      vertex -0.165426 0.45 -0.862351
      vertex 0.149843 0.45 -0.274967
    endloop
  endfacet
  facet normal 0 1 0
    outer loop
      vertex 0.149843 0.45 -0.274967
      vertex 0.283366 0.45 -0.0514867
      vertex 0.134574 0.45 -0.862012
    endloop
  endfacet
  facet normal 0 1 0
    outer loop
      vertex 0.283366 0.45 -0.0514867
      vertex 0.278076 0.45 -0.83562
      vertex 0.134574 0.45 -0.862012
    endloop
  endfacet
  facet normal 0 1 0
    outer loop
      vertex 0.191893 0.45 0.192244
      vertex -0.0556962 0.45 0.27269
      vertex 0.360358 0.45 0.747824
    endloop
  endfacet
  facet normal -1 0 3.59004e-7
    outer loop
      vertex -0.165426 0.45 0.823778
      vertex -0.165426 -6.66134e-17 0.823778
      vertex -0.165426 6.66134e-17 1.21291
    endloop
  endfacet
  facet normal -1 0 3.59004e-7
    outer loop
      vertex -0.165426 0.45 1.21291
      vertex -0.165426 0.45 0.823778
      vertex -0.165426 6.66134e-17 1.21291
    endloop
  endfacet
  facet normal -5.66214e-18 -1 3.42373e-16
    outer loop
      vertex -0.165426 6.66134e-17 1.21291
      vertex -0.165426 -6.66134e-17 0.823778
      vertex 0.112451 -6.66134e-17 0.828374
    endloop
  endfacet
  facet normal 7.00321e-12 1 2.15527e-11
    outer loop
      vertex 0.112451 -6.66134e-17 0.828374
      vertex 0.360358 -1.33227e-16 0.747824
      vertex 0.134574 -6.66134e-17 0.821185
    endloop
  endfacet
  facet normal 1.47124e-16 -1 4.52782e-16
    outer loop
      vertex 0.112451 -6.66134e-17 0.828374
      vertex 0.134574 -6.66134e-17 0.821185
      vertex -0.165426 6.66134e-17 1.21291
    endloop
  endfacet
  facet normal -2.22045e-16 -1 1.70053e-16
    outer loop
      vertex 0.134574 -6.66134e-17 0.821185
      vertex 0.134574 0 1.21291
      vertex -0.165426 6.66134e-17 1.21291
    endloop
  endfacet
  facet normal 0 1 0
    outer loop
      vertex 0.134574 0.45 -1.26209
      vertex -0.165426 0.45 -1.26209
      vertex 0.134574 0.45 -0.862012
    endloop
  endfacet
  facet normal 0 1 0
    outer loop
      vertex -0.165426 0.45 -1.26209
      vertex 0.149843 0.45 -0.274967
      vertex 0.134574 0.45 -0.862012
    endloop
  endfacet
  facet normal 6.20882e-7 0 -1
    outer loop
      vertex -0.165426 0.45 -1.26209
      vertex 0.134574 0.45 -1.26209
      vertex 0.134574 -5.9952e-16 -1.26209
    endloop
  endfacet
  facet normal 6.20882e-7 0 -1
    outer loop
      vertex -0.165426 -5.9952e-16 -1.26209
      vertex -0.165426 0.45 -1.26209
      vertex 0.134574 -5.9952e-16 -1.26209
    endloop
  endfacet
  facet normal 1 0 -1.07662e-6
    outer loop
      vertex 0.134574 -4.66294e-16 -0.862012
      vertex 0.134574 -5.9952e-16 -1.26209
      vertex 0.134574 0.45 -1.26209
    endloop
  endfacet
  facet normal 1 0 -1.07662e-6
    outer loop
      vertex 0.134574 0.45 -0.862012
      vertex 0.134574 -4.66294e-16 -0.862012
      vertex 0.134574 0.45 -1.26209
    endloop
  endfacet
  facet normal 0.180874 0 -0.983506
    outer loop
      vertex 0.134574 -4.66294e-16 -0.862012
      vertex 0.134574 0.45 -0.862012
      vertex 0.278076 -5.32907e-16 -0.83562
    endloop
  endfacet
  facet normal 0.180874 0 -0.983506
    outer loop
      vertex 0.134574 0.45 -0.862012
      vertex 0.278076 0.45 -0.83562
      vertex 0.278076 -5.32907e-16 -0.83562
    endloop
  endfacet
  facet normal 0.490424 0 -0.871484
    outer loop
      vertex 0.278076 -5.32907e-16 -0.83562
      vertex 0.278076 0.45 -0.83562
      vertex 0.356389 -5.32907e-16 -0.79155
    endloop
  endfacet
  facet normal 0.490424 0 -0.871484
    outer loop
      vertex 0.278076 0.45 -0.83562
      vertex 0.356389 0.45 -0.79155
      vertex 0.356389 -5.32907e-16 -0.79155
    endloop
  endfacet
  facet normal -3.10441e-7 0 1
    outer loop
      vertex -0.165426 6.66134e-17 1.21291
      vertex 0.134574 0 1.21291
      vertex -0.165426 0.45 1.21291
    endloop
  endfacet
  facet normal -3.10441e-7 0 1
    outer loop
      vertex 0.134574 0 1.21291
      vertex 0.134574 0.45 1.21291
      vertex -0.165426 0.45 1.21291
    endloop
  endfacet
  facet normal 0 1 0
    outer loop
      vertex -0.165426 0.45 1.21291
      vertex 0.134574 0.45 1.21291
      vertex 0.134574 0.45 0.821185
    endloop
  endfacet
  facet normal 1 0 7.42974e-7
    outer loop
      vertex 0.134574 0 1.21291
      vertex 0.134574 -6.66134e-17 0.821185
      vertex 0.134574 0.45 0.821185
    endloop
  endfacet
  facet normal 1 0 7.42974e-7
    outer loop
      vertex 0.134574 0.45 1.21291
      vertex 0.134574 0 1.21291
      vertex 0.134574 0.45 0.821185
    endloop
  endfacet
  facet normal -0.936235 0 -0.351373
    outer loop
      vertex 0.191893 -1.9984e-16 0.192244
      vertex 0.191893 0.45 0.192244
      vertex 0.283366 0.45 -0.0514867
    endloop
  endfacet
  facet normal -0.936235 0 -0.351373
    outer loop
      vertex 0.283366 -2.66454e-16 -0.0514867
      vertex 0.191893 -1.9984e-16 0.192244
      vertex 0.283366 0.45 -0.0514867
    endloop
  endfacet
  facet normal 0 1 0
    outer loop
      vertex 0.283366 0.45 -0.0514867
      vertex 0.191893 0.45 0.192244
      vertex 0.360358 0.45 0.747824
    endloop
  endfacet
  facet normal -2.92734e-15 -1 5.20188e-15
    outer loop
      vertex 0.278076 -5.32907e-16 -0.83562
      vertex 0.356389 -5.32907e-16 -0.79155
      vertex 1.9353 -2.66454e-16 0.148194
    endloop
  endfacet
  facet normal 9.91029e-18 -1 2.66887e-16
    outer loop
      vertex 0.356389 -5.32907e-16 -0.79155
      vertex 0.737492 -5.32907e-16 -0.805702
      vertex 1.9353 -2.66454e-16 0.148194
    endloop
  endfacet
  facet normal 0 1 0
    outer loop
      vertex 0.356389 0.45 -0.79155
      vertex 0.278076 0.45 -0.83562
      vertex 0.354189 0.45 -0.584402
    endloop
  endfacet
  facet normal 0 1 0
    outer loop
      vertex 0.278076 0.45 -0.83562
      vertex 0.360358 0.45 0.747824
      vertex 0.354189 0.45 -0.584402
    endloop
  endfacet
  facet normal 0 1 0
    outer loop
      vertex 0.354189 0.45 -0.584402
      vertex 0.360358 0.45 0.747824
      vertex 0.496833 0.45 0.112665
    endloop
  endfacet
  facet normal 0 1 0
    outer loop
      vertex 0.360358 0.45 0.747824
      vertex 0.691152 0.45 0.449234
      vertex 0.496833 0.45 0.112665
    endloop
  endfacet
  facet normal -0.809017 0 -0.587785
    outer loop
      vertex 0.356389 -5.32907e-16 -0.79155
      vertex 0.356389 0.45 -0.79155
      vertex 0.590605 0.45 -1.11392
    endloop
  endfacet
  facet normal -0.809017 0 -0.587785
    outer loop
      vertex 0.590605 -5.9952e-16 -1.11392
      vertex 0.356389 -5.32907e-16 -0.79155
      vertex 0.590605 0.45 -1.11392
    endloop
  endfacet
  facet normal 7.88572e-18 -1 2.12365e-16
    outer loop
      vertex 0.356389 -5.32907e-16 -0.79155
      vertex 0.590605 -5.9952e-16 -1.11392
      vertex 0.737492 -5.32907e-16 -0.805702
    endloop
  endfacet
  facet normal 5.99461e-16 -1 -6.95598e-17
    outer loop
      vertex 0.590605 -5.9952e-16 -1.11392
      vertex 0.833311 -4.66294e-16 -0.937585
      vertex 0.737492 -5.32907e-16 -0.805702
    endloop
  endfacet
  facet normal 0 1 0
    outer loop
      vertex 0.691689 0.45 0.000165259
      vertex 0.354189 0.45 -0.584402
      vertex 0.496833 0.45 0.112665
    endloop
  endfacet
  facet normal -0.866025 0 0.5
    outer loop
      vertex 0.354189 0.45 -0.584402
      vertex 0.691689 0.45 0.000165259
      vertex 0.354189 0.75 -0.584402
    endloop
  endfacet
  facet normal -0.866025 0 0.5
    outer loop
      vertex 0.691689 0.45 0.000165259
      vertex 0.691689 0.75 0.000165259
      vertex 0.354189 0.75 -0.584402
    endloop
  endfacet
  facet normal -0.5 0 -0.866025
    outer loop
      vertex 0.354189 0.45 -0.584402
      vertex 0.354189 0.75 -0.584402
      vertex 1.1103 0.75 -1.02094
    endloop
  endfacet
  facet normal -0.5 -6.80766e-7 -0.866025
    outer loop
      vertex 0.737492 0.45 -0.805702
      vertex 0.354189 0.45 -0.584402
      vertex 1.1103 0.75 -1.02094
    endloop
  endfacet
  facet normal 0 1 0
    outer loop
      vertex 0.354189 0.45 -0.584402
      vertex 0.737492 0.45 -0.805702
      vertex 0.833311 0.45 -0.937585
    endloop
  endfacet
  facet normal 0 1 0
    outer loop
      vertex 0.590605 0.45 -1.11392
      vertex 0.356389 0.45 -0.79155
      vertex 0.354189 0.45 -0.584402
    endloop
  endfacet
  facet normal 0 1 0
    outer loop
      vertex 0.354189 0.75 -0.584402
      vertex 0.691689 0.75 0.000165259
      vertex 1.1103 0.75 -1.02094
    endloop
  endfacet
  facet normal 0 1 0
    outer loop
      vertex 0.691689 0.75 0.000165259
      vertex 1.9353 0.75 0.148194
      vertex 1.1103 0.75 -1.02094
    endloop
  endfacet
  facet normal -0.5 0 -0.866025
    outer loop
      vertex 0.691689 0.45 0.000165259
      vertex 0.496833 0.45 0.112665
      vertex 0.691689 0.75 0.000165259
    endloop
  endfacet
  facet normal -0.5 0 -0.866025
    outer loop
      vertex 0.496833 0.45 0.112665
      vertex 0.496833 0.75 0.112665
      vertex 0.691689 0.75 0.000165259
    endloop
  endfacet
  facet normal -0.5 0 -0.866025
    outer loop
      vertex 1.1103 0.75 -1.02094
      vertex 1.1103 -5.32907e-16 -1.02094
      vertex 0.737492 -5.32907e-16 -0.805702
    endloop
  endfacet
  facet normal 0 1 0
    outer loop
      vertex 0.691689 0.75 0.000165259
      vertex 0.496833 0.75 0.112665
      vertex 0.871834 0.75 0.762184
    endloop
  endfacet
  facet normal 0 1 0
    outer loop
      vertex 0.833311 0.45 -0.937585
      vertex 0.590605 0.45 -1.11392
      vertex 0.354189 0.45 -0.584402
    endloop
  endfacet
  facet normal 0.587786 0 -0.809016
    outer loop
      vertex 0.590605 0.45 -1.11392
      vertex 0.833311 0.45 -0.937585
      vertex 0.833311 -4.66294e-16 -0.937585
    endloop
  endfacet
  facet normal 0.587786 0 -0.809016
    outer loop
      vertex 0.590605 -5.9952e-16 -1.11392
      vertex 0.590605 0.45 -1.11392
      vertex 0.833311 -4.66294e-16 -0.937585
    endloop
  endfacet
  facet normal -0.866025 0 0.5
    outer loop
      vertex 0.496833 0.45 0.112665
      vertex 0.691152 0.45 0.449234
      vertex 0.496833 0.75 0.112665
    endloop
  endfacet
  facet normal 0.809016 0 0.587786
    outer loop
      vertex 0.833311 0.45 -0.937585
      vertex 0.737492 0.45 -0.805702
      vertex 0.737492 -5.32907e-16 -0.805702
    endloop
  endfacet
  facet normal 0.809016 0 0.587786
    outer loop
      vertex 0.833311 -4.66294e-16 -0.937585
      vertex 0.833311 0.45 -0.937585
      vertex 0.737492 -5.32907e-16 -0.805702
    endloop
  endfacet
  facet normal -0.5 0 -0.866025
    outer loop
      vertex 0.737492 -5.32907e-16 -0.805702
      vertex 0.737492 0.45 -0.805702
      vertex 1.1103 0.75 -1.02094
    endloop
  endfacet
  facet normal 0.587786 0 0.809016
    outer loop
      vertex 0.590605 0 1.06473
      vertex 0.83331 -6.66134e-17 0.888396
      vertex 0.83331 0.45 0.888396
    endloop
  endfacet
  facet normal 0.587786 0 0.809016
    outer loop
      vertex 0.590605 0.45 1.06473
      vertex 0.590605 0 1.06473
      vertex 0.83331 0.45 0.888396
    endloop
  endfacet
  facet normal 0 1 0
    outer loop
      vertex 0.60939 0.45 0.569972
      vertex 0.691152 0.45 0.449234
      vertex 0.360358 0.45 0.747824
    endloop
  endfacet
  facet normal 0.809017 0 -0.587785
    outer loop
      vertex 0.83331 0.45 0.888396
      vertex 0.83331 -6.66134e-17 0.888396
      vertex 0.604587 0.45 0.573585
    endloop
  endfacet
  facet normal 0.809017 0 -0.587785
    outer loop
      vertex 0.83331 -6.66134e-17 0.888396
      vertex 0.604587 -1.33227e-16 0.573585
      vertex 0.604587 0.45 0.573585
    endloop
  endfacet
  facet normal 0 1 0
    outer loop
      vertex 0.83331 0.45 0.888396
      vertex 0.604587 0.45 0.573585
      vertex 0.360358 0.45 0.747824
    endloop
  endfacet
  facet normal 0 1 0
    outer loop
      vertex 0.604587 0.45 0.573585
      vertex 0.60939 0.45 0.569972
      vertex 0.360358 0.45 0.747824
    endloop
  endfacet
  facet normal 0 1 0
    outer loop
      vertex 0.871834 0.75 0.762184
      vertex 1.9353 0.75 0.148194
      vertex 0.691689 0.75 0.000165259
    endloop
  endfacet
  facet normal 0 1 0
    outer loop
      vertex 0.360358 0.45 0.747824
      vertex 0.278076 0.45 -0.83562
      vertex 0.283366 0.45 -0.0514867
    endloop
  endfacet
endsolid Onshape
